<?xml version="1.0" encoding="UTF-8"?>
<svg version="1.1" xmlns="http://www.w3.org/2000/svg" width="685" height="275">
<path d="M0 0 C1.16379684 -0.0049649 2.32759369 -0.00992981 3.5266571 -0.01504517 C7.36225995 -0.02960243 11.19782138 -0.0364594 15.03344727 -0.04199219 C17.037527 -0.04629325 19.04160673 -0.05059487 21.0456863 -0.05496669 C26.63167007 -0.06675362 32.21764395 -0.07430595 37.80363888 -0.07776189 C44.97960616 -0.08222825 52.15538162 -0.09971825 59.33129066 -0.12876248 C64.90959464 -0.15054016 70.48784531 -0.16047476 76.06619126 -0.16180301 C79.3827625 -0.16284027 82.69901076 -0.17001248 86.01556206 -0.18662262 C122.65752185 -0.35698193 122.65752185 -0.35698193 135.47485352 6.66113281 C136.44829712 7.17281006 136.44829712 7.17281006 137.44140625 7.69482422 C147.8963034 13.47925914 156.04048923 21.92936526 162.16235352 32.16113281 C162.75790039 33.14146484 162.75790039 33.14146484 163.36547852 34.14160156 C170.26414088 46.62612114 170.31347505 61.17164459 170.32348633 75.02807617 C170.32812194 76.52874878 170.33314758 78.02942022 170.33853149 79.53009033 C170.35159024 83.59054549 170.35808821 87.65098416 170.36254215 91.71145701 C170.36548484 94.25644252 170.36959194 96.80142365 170.37404633 99.34640694 C170.38770713 107.3324948 170.39737942 115.3185725 170.40124822 123.30467123 C170.40571875 132.47911819 170.4232258 141.65341542 170.45224881 150.8278169 C170.47397839 157.94750862 170.48395855 165.06715856 170.48528934 172.18688303 C170.48632978 176.4256061 170.49207281 180.66418817 170.51010895 184.9028759 C170.52678491 188.89946621 170.52865232 192.89581249 170.51996994 196.89242554 C170.51920974 198.34466272 170.52340459 199.79691411 170.53342819 201.2491169 C170.61729218 214.17633572 170.00713979 228.88601519 163.66235352 240.47363281 C163.32123535 241.12259521 162.98011719 241.77155762 162.62866211 242.44018555 C156.84422719 252.89508269 148.39412106 261.03926853 138.16235352 267.16113281 C137.50879883 267.55816406 136.85524414 267.95519531 136.18188477 268.36425781 C124.65744167 274.73240369 111.17677359 275.30902824 98.32470703 275.32226562 C96.57901176 275.32971298 96.57901176 275.32971298 94.79804993 275.33731079 C90.96244709 275.35186806 87.12688565 275.35872502 83.29125977 275.36425781 C81.28718003 275.36855887 79.2831003 275.37286049 77.27902073 275.37723231 C71.69303696 275.38901924 66.10706308 275.39657157 60.52106816 275.40002751 C53.34510087 275.40449387 46.16932541 275.42198387 38.99341637 275.45102811 C33.41511239 275.47280579 27.83686172 275.48274039 22.25851578 275.48406863 C18.94194453 275.48510589 15.62569627 275.49227811 12.30914497 275.50888824 C-24.33281481 275.67924755 -24.33281481 275.67924755 -37.15014648 268.66113281 C-37.79910889 268.32001465 -38.44807129 267.97889648 -39.11669922 267.62744141 C-49.57159637 261.84300648 -57.7157822 253.39290036 -63.83764648 243.16113281 C-64.23467773 242.50757813 -64.63170898 241.85402344 -65.04077148 241.18066406 C-71.93943385 228.69614449 -71.98876802 214.15062104 -71.9987793 200.29418945 C-72.0034149 198.79351685 -72.00844055 197.2928454 -72.01382446 195.79217529 C-72.02688321 191.73172013 -72.03338118 187.67128147 -72.03783512 183.61080861 C-72.0407778 181.0658231 -72.04488491 178.52084197 -72.04933929 175.97585869 C-72.06300009 167.98977082 -72.07267239 160.00369313 -72.07654119 152.0175944 C-72.08101172 142.84314743 -72.09851877 133.6688502 -72.12754178 124.49444872 C-72.14927136 117.37475701 -72.15925152 110.25510706 -72.1605823 103.13538259 C-72.16162275 98.89665952 -72.16736577 94.65807745 -72.18540192 90.41938972 C-72.20207788 86.42279942 -72.20394529 82.42645313 -72.19526291 78.42984009 C-72.19450271 76.9776029 -72.19869756 75.52535152 -72.20872116 74.07314873 C-72.29258515 61.1459299 -71.68243276 46.43625044 -65.33764648 34.84863281 C-64.99652832 34.19967041 -64.65541016 33.55070801 -64.30395508 32.88208008 C-58.51952016 22.42718293 -50.06941403 14.28299709 -39.83764648 8.16113281 C-39.1840918 7.76410156 -38.53053711 7.36707031 -37.85717773 6.95800781 C-26.33273464 0.58986194 -12.85206656 0.01323738 0 0 Z " fill="#8771FD" transform="translate(71.837646484375,-0.1611328125)"/>
<path d="M0 0 C1.16379684 -0.0049649 2.32759369 -0.00992981 3.5266571 -0.01504517 C7.36225995 -0.02960243 11.19782138 -0.0364594 15.03344727 -0.04199219 C17.037527 -0.04629325 19.04160673 -0.05059487 21.0456863 -0.05496669 C26.63167007 -0.06675362 32.21764395 -0.07430595 37.80363888 -0.07776189 C44.97960616 -0.08222825 52.15538162 -0.09971825 59.33129066 -0.12876248 C64.90959464 -0.15054016 70.48784531 -0.16047476 76.06619126 -0.16180301 C79.3827625 -0.16284027 82.69901076 -0.17001248 86.01556206 -0.18662262 C122.65752185 -0.35698193 122.65752185 -0.35698193 135.47485352 6.66113281 C136.44829712 7.17281006 136.44829712 7.17281006 137.44140625 7.69482422 C147.8963034 13.47925914 156.04048923 21.92936526 162.16235352 32.16113281 C162.75790039 33.14146484 162.75790039 33.14146484 163.36547852 34.14160156 C170.26414088 46.62612114 170.31347505 61.17164459 170.32348633 75.02807617 C170.32812194 76.52874878 170.33314758 78.02942022 170.33853149 79.53009033 C170.35159024 83.59054549 170.35808821 87.65098416 170.36254215 91.71145701 C170.36548484 94.25644252 170.36959194 96.80142365 170.37404633 99.34640694 C170.38770713 107.3324948 170.39737942 115.3185725 170.40124822 123.30467123 C170.40571875 132.47911819 170.4232258 141.65341542 170.45224881 150.8278169 C170.47397839 157.94750862 170.48395855 165.06715856 170.48528934 172.18688303 C170.48632978 176.4256061 170.49207281 180.66418817 170.51010895 184.9028759 C170.52678491 188.89946621 170.52865232 192.89581249 170.51996994 196.89242554 C170.51920974 198.34466272 170.52340459 199.79691411 170.53342819 201.2491169 C170.61729218 214.17633572 170.00713979 228.88601519 163.66235352 240.47363281 C163.32123535 241.12259521 162.98011719 241.77155762 162.62866211 242.44018555 C156.84422719 252.89508269 148.39412106 261.03926853 138.16235352 267.16113281 C137.50879883 267.55816406 136.85524414 267.95519531 136.18188477 268.36425781 C124.65744167 274.73240369 111.17677359 275.30902824 98.32470703 275.32226562 C96.57901176 275.32971298 96.57901176 275.32971298 94.79804993 275.33731079 C90.96244709 275.35186806 87.12688565 275.35872502 83.29125977 275.36425781 C81.28718003 275.36855887 79.2831003 275.37286049 77.27902073 275.37723231 C71.69303696 275.38901924 66.10706308 275.39657157 60.52106816 275.40002751 C53.34510087 275.40449387 46.16932541 275.42198387 38.99341637 275.45102811 C33.41511239 275.47280579 27.83686172 275.48274039 22.25851578 275.48406863 C18.94194453 275.48510589 15.62569627 275.49227811 12.30914497 275.50888824 C-24.33281481 275.67924755 -24.33281481 275.67924755 -37.15014648 268.66113281 C-37.79910889 268.32001465 -38.44807129 267.97889648 -39.11669922 267.62744141 C-49.57159637 261.84300648 -57.7157822 253.39290036 -63.83764648 243.16113281 C-64.23467773 242.50757813 -64.63170898 241.85402344 -65.04077148 241.18066406 C-71.93943385 228.69614449 -71.98876802 214.15062104 -71.9987793 200.29418945 C-72.0034149 198.79351685 -72.00844055 197.2928454 -72.01382446 195.79217529 C-72.02688321 191.73172013 -72.03338118 187.67128147 -72.03783512 183.61080861 C-72.0407778 181.0658231 -72.04488491 178.52084197 -72.04933929 175.97585869 C-72.06300009 167.98977082 -72.07267239 160.00369313 -72.07654119 152.0175944 C-72.08101172 142.84314743 -72.09851877 133.6688502 -72.12754178 124.49444872 C-72.14927136 117.37475701 -72.15925152 110.25510706 -72.1605823 103.13538259 C-72.16162275 98.89665952 -72.16736577 94.65807745 -72.18540192 90.41938972 C-72.20207788 86.42279942 -72.20394529 82.42645313 -72.19526291 78.42984009 C-72.19450271 76.9776029 -72.19869756 75.52535152 -72.20872116 74.07314873 C-72.29258515 61.1459299 -71.68243276 46.43625044 -65.33764648 34.84863281 C-64.99652832 34.19967041 -64.65541016 33.55070801 -64.30395508 32.88208008 C-58.51952016 22.42718293 -50.06941403 14.28299709 -39.83764648 8.16113281 C-39.1840918 7.76410156 -38.53053711 7.36707031 -37.85717773 6.95800781 C-26.33273464 0.58986194 -12.85206656 0.01323738 0 0 Z M-45.83764648 21.16113281 C-46.48475586 21.68191406 -47.13186523 22.20269531 -47.79858398 22.73925781 C-59.74556294 33.44288602 -63.6499986 48.79902228 -64.83764648 64.16113281 C-64.9809356 67.93296418 -65.00451746 71.70128405 -65.01464844 75.47558594 C-65.02121964 76.56003998 -65.02779083 77.64449402 -65.03456116 78.7618103 C-65.05413977 82.32200206 -65.06592298 85.88215191 -65.07592773 89.44238281 C-65.08000326 90.66845749 -65.08407879 91.89453217 -65.08827782 93.15776062 C-65.10907424 99.64944282 -65.12340287 106.14110429 -65.1328125 112.6328125 C-65.14284735 119.29191357 -65.17824966 125.95063185 -65.2179842 132.60962677 C-65.24429173 137.77108323 -65.2525169 142.9324613 -65.25609398 148.09397888 C-65.26092445 150.54644538 -65.27243543 152.99890922 -65.29113197 155.4513092 C-65.45113718 177.83186161 -64.29683594 198.8218523 -48.22705078 215.99438477 C-34.42192562 229.94847773 -17.41880188 233.20536388 1.46340942 233.31887817 C2.46830414 233.31999603 3.47319885 233.32111389 4.50854492 233.32226562 C6.14004486 233.32971298 6.14004486 233.32971298 7.80450439 233.33731079 C11.3743149 233.35181953 14.94408097 233.35871567 18.51391602 233.36425781 C20.35677248 233.36849888 20.35677248 233.36849888 22.23685837 233.37282562 C28.73920656 233.38777284 35.24153283 233.39703038 41.74389648 233.40136719 C48.42106427 233.4060576 55.09799818 233.43086723 61.77511024 233.45933914 C66.94506395 233.47806714 72.11496933 233.48317652 77.28495407 233.48470306 C79.7446441 233.48770746 82.20433373 233.49565999 84.66399002 233.50888824 C107.27556751 233.62181303 127.77438706 232.90150951 145.09887695 216.49121094 C157.56447655 203.98318248 162.31994179 187.7994668 162.44451904 170.48181152 C162.44204163 169.44310913 162.43956421 168.40440674 162.43701172 167.33422852 C162.44212265 166.20740158 162.44723358 165.08057465 162.45249939 163.91960144 C162.46630386 160.225317 162.46544512 156.5312211 162.46313477 152.83691406 C162.46702743 150.2453759 162.47136327 147.65383836 162.47612 145.06230164 C162.48356314 139.63989926 162.48344542 134.21756872 162.47802734 128.79516602 C162.47200062 122.56891029 162.48427591 116.3428813 162.50559741 110.11666423 C162.52549163 104.0805237 162.52836877 98.04449987 162.52486229 92.00832176 C162.52537199 89.46211402 162.53054292 86.91590238 162.54067421 84.36971474 C162.62042679 61.5200636 162.09000409 40.74680588 145.49243164 23.22460938 C127.84048983 5.63254525 105.14545958 5.8538017 81.86141586 5.88854218 C80.65877216 5.89084084 79.45612846 5.8931395 78.21704102 5.89550781 C75.71371422 5.89415769 73.21038768 5.89221427 70.70706177 5.88970947 C65.48428834 5.88677567 60.26158373 5.89100019 55.03881836 5.90039062 C49.70087806 5.90952507 44.36308352 5.91005843 39.02514648 5.90039062 C32.53688257 5.88874578 26.04869946 5.8870027 19.56042862 5.89350128 C17.10385239 5.89482691 14.64727265 5.89322856 12.19070053 5.88854218 C-10.00515039 5.85547465 -27.90959476 6.47720473 -45.83764648 21.16113281 Z " fill="#11002F" transform="translate(71.837646484375,-0.1611328125)"/>
<path d="M0 0 C9.88176087 7.92174219 15.89597519 18.78206914 17.80859375 31.3046875 C18.06117227 34.86140544 18 38.43432497 18 42 C9.09 42 0.18 42 -9 42 C-9.99 36.555 -9.99 36.555 -11 31 C-13.2652948 24.95411186 -16.29624623 20.93663944 -22.0625 17.9375 C-30.92824771 14.00183633 -39.60102978 14.03075656 -48.71484375 17.1015625 C-55.72825826 19.85897333 -59.6045472 24.42386701 -63 31 C-65.18954697 37.1031983 -65.32191148 42.78710047 -65.3359375 49.234375 C-65.3425943 50.3081842 -65.3492511 51.38199341 -65.35610962 52.48834229 C-65.36620492 54.75425512 -65.37092761 57.02019751 -65.37060547 59.28613281 C-65.37496843 62.72511688 -65.41129491 66.16280595 -65.44921875 69.6015625 C-65.45508983 71.81249566 -65.45905727 74.02343485 -65.4609375 76.234375 C-65.47530853 77.24933044 -65.48967957 78.26428589 -65.50448608 79.30999756 C-65.44320094 89.04681216 -63.01982073 98.19366484 -56.09375 105.33984375 C-48.24788686 111.5609106 -38.61893848 111.93123135 -29 111 C-21.28238676 109.55641767 -17.37531523 106.32544133 -12.8125 99.9375 C-10.27094552 94.8707878 -10.27094552 94.8707878 -9 84 C-19.89 84 -30.78 84 -42 84 C-42 76.41 -42 68.82 -42 61 C-22.2 61 -2.4 61 18 61 C18 84.76 18 108.52 18 133 C9.75 133 1.5 133 -7 133 C-7 128.71 -7 124.42 -7 120 C-10.93728327 121.96864163 -11.48877724 122.38536962 -13.625 125.8125 C-17.79985725 131.67008033 -24.07627284 134.50513153 -31 136 C-47.80911078 137.42783894 -63.08760448 134.94474648 -76.625 124.3125 C-85.97907826 115.78123418 -92.47536257 102.92764138 -93.14717102 90.21510315 C-93.15701523 89.20253952 -93.16685944 88.18997589 -93.17700195 87.14672852 C-93.18983719 85.99104874 -93.20267242 84.83536896 -93.21589661 83.64466858 C-93.22328354 82.40196701 -93.23067047 81.15926544 -93.23828125 79.87890625 C-93.246353 78.58742172 -93.25442474 77.29593719 -93.26274109 75.96531677 C-93.27773619 73.22923925 -93.28758613 70.49318732 -93.29516602 67.75708008 C-93.30615649 64.29104664 -93.34048145 60.82566834 -93.38033772 57.35986423 C-93.41315895 54.01207486 -93.41731386 50.66434378 -93.42578125 47.31640625 C-93.44328934 46.09192276 -93.46079742 44.86743927 -93.47883606 43.60585022 C-93.44051597 28.0967669 -88.78574184 15.31698553 -78.4375 3.75 C-58.94123768 -14.61495116 -21.09782951 -16.15926701 0 0 Z " fill="#11002F" transform="translate(404,56)"/>
<path d="M0 0 C1.28623718 0.98010779 2.55921609 1.97809158 3.8125 3 C4.84375 3.721875 5.875 4.44375 6.9375 5.1875 C14.90692077 12.09137147 18.34203421 22.11813685 20.8125 32 C20.8125 35.96 20.8125 39.92 20.8125 44 C12.2325 44 3.6525 44 -5.1875 44 C-5.414375 42.02 -5.64125 40.04 -5.875 38 C-7.07705219 30.5698653 -8.48100307 25.80703757 -14.5859375 21.18359375 C-23.60872989 15.85643824 -33.9721867 15.1471546 -44.0625 17.73828125 C-46.28772622 18.65167647 -48.18374463 19.67585531 -50.1875 21 C-51.26 21.680625 -52.3325 22.36125 -53.4375 23.0625 C-58.61804574 27.68025665 -61.8895247 36.25595985 -62.32121277 43.12882996 C-62.32693047 44.27391777 -62.32693047 44.27391777 -62.33276367 45.44213867 C-62.33914352 46.31372116 -62.34552338 47.18530365 -62.35209656 48.08329773 C-62.35320938 49.01873917 -62.3543222 49.9541806 -62.35546875 50.91796875 C-62.35879715 51.88978592 -62.36212555 52.86160309 -62.36555481 53.86286926 C-62.37061504 55.91972379 -62.37296341 57.97658652 -62.37280273 60.03344727 C-62.3749798 63.15850635 -62.39311918 66.28320691 -62.41210938 69.40820312 C-62.41504548 71.41145713 -62.41702882 73.41471281 -62.41796875 75.41796875 C-62.42515427 76.34328903 -62.43233978 77.26860931 -62.43974304 78.2219696 C-62.40469605 88.33001458 -60.5990267 98.73638208 -53.7734375 106.63671875 C-46.781988 112.86172592 -38.19530832 114.39526394 -29.16796875 114.2734375 C-22.49383501 113.66113165 -16.28928038 111.73241478 -11.6875 106.6875 C-6.68073342 99.87714315 -6.05505935 94.67559346 -5.1875 86 C-16.0775 86 -26.9675 86 -38.1875 86 C-38.1875 78.41 -38.1875 70.82 -38.1875 63 C-18.3875 63 1.4125 63 21.8125 63 C21.8125 86.76 21.8125 110.52 21.8125 135 C13.5625 135 5.3125 135 -3.1875 135 C-3.1875 130.71 -3.1875 126.42 -3.1875 122 C-8.24925507 123.26543877 -8.41326146 124.75704695 -11.1875 129 C-17.59310339 135.56183762 -25.35578709 138.12092358 -34.42041016 138.42382812 C-50.0376218 138.52067905 -63.39083068 134.40784527 -74.86328125 123.51171875 C-87.18819652 110.1925246 -89.31880689 94.79947552 -89.390625 77.421875 C-89.39632507 76.33344299 -89.40202515 75.24501099 -89.40789795 74.12359619 C-89.41729861 71.83094236 -89.42386217 69.53827531 -89.42773438 67.24560547 C-89.43743248 63.77416962 -89.46850092 60.30332841 -89.5 56.83203125 C-89.58603276 39.07381528 -88.82660848 21.37949602 -75.94140625 7.5859375 C-56.1498558 -10.31020834 -22.96403092 -14.77352656 0 0 Z " fill="#130132" transform="translate(154.1875,54)"/>
<path d="M0 0 C10.9640368 8.21003704 16.91353669 19.75330547 19.3125 33.1875 C21.123383 50.59209769 19.29756623 67.68895609 8.87109375 82.21875 C2.18521349 90.32284729 -6.84645161 96.06903891 -17.3125 97.6875 C-29.45519804 98.66637393 -41.35334627 98.56217969 -51.3125 90.6875 C-54.1875 88.0625 -54.1875 88.0625 -56.3125 85.6875 C-56.3125 85.0275 -56.3125 84.3675 -56.3125 83.6875 C-57.6325 83.6875 -58.9525 83.6875 -60.3125 83.6875 C-60.3125 100.5175 -60.3125 117.3475 -60.3125 134.6875 C-68.8925 134.6875 -77.4725 134.6875 -86.3125 134.6875 C-86.33504632 116.58142062 -86.35347876 98.47535316 -86.36431217 80.36926365 C-86.36947531 71.96288616 -86.37651834 63.55651799 -86.38793945 55.15014648 C-86.39788575 47.82582068 -86.4043533 40.50150163 -86.40658849 33.17716926 C-86.40789569 29.29659213 -86.41098212 25.4160343 -86.41823006 21.53546333 C-86.42498942 17.88710443 -86.42711713 14.23877289 -86.42560768 10.59040833 C-86.42601637 8.60461581 -86.431412 6.6188263 -86.43692017 4.63304138 C-86.4355455 3.4620993 -86.43417084 2.29115723 -86.43275452 1.08473206 C-86.43413721 -0.45143595 -86.43413721 -0.45143595 -86.43554783 -2.01863766 C-86.3125 -4.3125 -86.3125 -4.3125 -85.3125 -5.3125 C-83.45880389 -5.39987645 -81.60182459 -5.41948153 -79.74609375 -5.41015625 C-78.62138672 -5.40693359 -77.49667969 -5.40371094 -76.33789062 -5.40039062 C-75.15388672 -5.39201172 -73.96988281 -5.38363281 -72.75 -5.375 C-71.56212891 -5.37048828 -70.37425781 -5.36597656 -69.15039062 -5.36132812 C-66.20440588 -5.34949686 -63.25844684 -5.33156076 -60.3125 -5.3125 C-60.3125 -1.3525 -60.3125 2.6075 -60.3125 6.6875 C-56.67897725 4.50738635 -54.50631869 3.05631691 -51.625 0.25 C-37.30141317 -12.17781798 -15.09307571 -9.88396108 0 0 Z M-53.3125 22.6875 C-60.44478428 31.24277044 -61.06890185 40.91777844 -60.3125 51.6875 C-59.06202553 59.34796963 -55.8500194 66.29909266 -49.5078125 71.03515625 C-41.75845805 75.67479121 -32.39880098 76.02197784 -23.67578125 74.109375 C-16.47775948 71.34573663 -11.06577386 65.49896491 -7.875 58.5625 C-5.84982901 48.21162605 -5.26562161 38.63235257 -9.3125 28.6875 C-14.16838282 21.52483053 -19.10995008 16.88866159 -27.65234375 15.234375 C-37.6196627 13.82144227 -45.69012492 15.98277008 -53.3125 22.6875 Z " fill="#11002F" transform="translate(665.3125,94.3125)"/>
<path d="M0 0 C8.58 0 17.16 0 26 0 C26 3.96 26 7.92 26 12 C26.99 12 27.98 12 29 12 C29.0928125 11.1646875 29.0928125 11.1646875 29.1875 10.3125 C30.75759976 5.84375453 34.01310693 3.52401402 38.08984375 1.359375 C42.51111401 -0.45708438 46.72635906 -0.33438465 51.4375 -0.1875 C54.263125 -0.125625 57.08875 -0.06375 60 0 C60 7.59 60 15.18 60 23 C57.545625 23.103125 55.09125 23.20625 52.5625 23.3125 C44.28762155 23.77388716 35.92079446 24.5567825 30 31 C26.4383016 38.25702159 26.52772062 45.14438567 26.48828125 53.125 C26.47140855 54.48121743 26.45325488 55.83741947 26.43388367 57.19360352 C26.38665791 60.73788644 26.3566724 64.28210693 26.33044434 67.82659912 C26.30049912 71.45353518 26.25401733 75.0802567 26.20898438 78.70703125 C26.12326405 85.80457768 26.05731215 92.90215898 26 100 C17.42 100 8.84 100 0 100 C0 67 0 34 0 0 Z " fill="#11002F" transform="translate(447,89)"/>
<path d="M0 0 C8.58 0 17.16 0 26 0 C26 33 26 66 26 100 C17.42 100 8.84 100 0 100 C0 67 0 34 0 0 Z " fill="#10002F" transform="translate(526,89)"/>
<path d="M0 0 C4.40295722 3.59425079 6.50453062 7.15218371 7.44140625 12.7734375 C7.74313451 18.47707493 6.46161518 21.93802963 3.0625 26.5 C-1.50958851 30.54045031 -5.94801654 31.74364001 -11.9375 31.5 C-18.17092546 30.33821461 -21.35422004 27.60345933 -24.9375 22.5 C-27.03178889 18.31142223 -26.35543012 13.06140874 -25.9375 8.5 C-23.97553408 4.10519635 -21.39244062 1.41349649 -17.05859375 -0.8046875 C-11.53225452 -2.61626832 -5.27686267 -2.54197255 0 0 Z " fill="#11002F" transform="translate(548.9375,47.5)"/>
</svg>
