<?xml version="1.0" encoding="UTF-8"?>
<svg version="1.1" xmlns="http://www.w3.org/2000/svg" width="685" height="275">
<path d="M0 0 C1.73829323 -0.00503792 1.73829323 -0.00503792 3.51170349 -0.01017761 C7.32926517 -0.01964816 11.14678278 -0.02162893 14.96435547 -0.02270508 C16.95718835 -0.02510724 18.95002124 -0.02751136 20.94285381 -0.03016549 C27.20783676 -0.03828823 33.47280536 -0.04075184 39.73779297 -0.04003906 C46.16562584 -0.0394397 52.59337442 -0.04996827 59.02118599 -0.06578273 C64.56802099 -0.07893528 70.11482871 -0.0842197 75.66167915 -0.08358365 C78.96186633 -0.0833308 82.26196258 -0.08700822 85.5621376 -0.0967617 C110.89439163 -0.16460716 132.45847041 0.58398249 151.88623047 18.79370117 C167.64814403 34.7678964 170.35206501 53.40561838 170.36767578 75.01220703 C170.37231139 76.51287964 170.37733703 78.01355108 170.38272095 79.51422119 C170.39577969 83.57467635 170.40227767 87.63511502 170.40673161 91.69558787 C170.40967429 94.24057338 170.41378139 96.78555451 170.41823578 99.3305378 C170.43189658 107.31662566 170.44156887 115.30270336 170.44543767 123.28880209 C170.4499082 132.46324905 170.46741526 141.63754628 170.49643826 150.81194776 C170.51816784 157.93163948 170.528148 165.05128942 170.52947879 172.17101389 C170.53051924 176.40973696 170.53626226 180.64831903 170.5542984 184.88700676 C170.57097436 188.88359707 170.57284178 192.87994335 170.56415939 196.8765564 C170.56339919 198.32879358 170.56759404 199.78104497 170.57761765 201.23324776 C170.66148163 214.16046658 170.05132925 228.87014605 163.70654297 240.45776367 C163.3654248 241.10672607 163.02430664 241.75568848 162.67285156 242.42431641 C156.88841664 252.87921355 148.43831052 261.02339939 138.20654297 267.14526367 C137.55298828 267.54229492 136.89943359 267.93932617 136.22607422 268.34838867 C124.70163113 274.71653455 111.22096304 275.2931591 98.36889648 275.30639648 C96.62320122 275.31384384 96.62320122 275.31384384 94.84223938 275.32144165 C91.00663654 275.33599892 87.17107511 275.34285588 83.33544922 275.34838867 C81.33136949 275.35268973 79.32728976 275.35699135 77.32321018 275.36136317 C71.73722642 275.3731501 66.15125254 275.38070243 60.56525761 275.38415837 C53.38929032 275.38862473 46.21351487 275.40611473 39.03760582 275.43515897 C33.45930184 275.45693665 27.88105117 275.46687124 22.30270523 275.46819949 C18.98613399 275.46923675 15.66988572 275.47640897 12.35333443 275.4930191 C-24.28862536 275.66337841 -24.28862536 275.66337841 -37.10595703 268.64526367 C-37.75491943 268.30414551 -38.40388184 267.96302734 -39.07250977 267.61157227 C-49.52740691 261.82713734 -57.67159275 253.37703122 -63.79345703 243.14526367 C-64.19048828 242.49170898 -64.58751953 241.8381543 -64.99658203 241.16479492 C-71.88968766 228.69033137 -71.94426929 214.16776338 -71.9387207 200.32250977 C-71.9417169 198.82682207 -71.94512048 197.33113514 -71.94889832 195.83544922 C-71.9576978 191.78965326 -71.96007478 187.74387847 -71.9607141 183.69807386 C-71.96142715 181.16383236 -71.96356634 178.62959617 -71.96621132 176.09535599 C-71.97545286 167.23519807 -71.97954789 158.37505515 -71.97875977 149.51489258 C-71.97815999 141.28752548 -71.98869522 133.06022417 -72.00450343 124.8328737 C-72.01763202 117.74465104 -72.02294141 110.65644972 -72.02230436 103.56821501 C-72.02205084 99.34583128 -72.02482038 95.12350599 -72.03548241 90.90113449 C-72.04525284 86.92346883 -72.04518214 82.94591641 -72.03796577 78.96824646 C-72.03693079 77.51959185 -72.03921704 76.07092985 -72.04532623 74.62228775 C-72.13155174 52.73415831 -68.42006123 34.76235979 -53.14501953 18.46557617 C-38.15523801 3.6749944 -20.45404904 -0.00857744 0 0 Z M-48.09423828 24.28198242 C-70.4145464 47.95895181 -64.96311998 84.21887221 -64.92382812 114.34887695 C-64.91813135 118.75909786 -64.92152065 123.16925845 -64.92726231 127.57947731 C-67.38832719 175.51191063 -67.38832719 175.51191063 -46.65673828 216.44604492 C-22.97976889 238.76635304 13.28015151 233.31492663 43.41015625 233.27563477 C47.82037716 233.26993799 52.23053775 233.27332729 56.64075661 233.27906895 C104.57318993 235.74013383 104.57318993 235.74013383 145.50732422 215.00854492 C167.82763233 191.33157553 162.37620592 155.07165514 162.33691406 124.94165039 C162.33121729 120.53142948 162.33460659 116.12126889 162.34034824 111.71105003 C164.80141313 63.77861671 164.80141313 63.77861671 144.06982422 22.84448242 C120.39285483 0.52417431 84.13293443 5.97560072 54.00292969 6.01489258 C49.59270878 6.02058936 45.18254819 6.01720005 40.77232933 6.0114584 C-7.16010399 3.55039352 -7.16010399 3.55039352 -48.09423828 24.28198242 Z " fill="#FFFFFF" transform="translate(71.79345703125,-0.145263671875)"/>
<path d="M0 0 C9.88176087 7.92174219 15.89597519 18.78206914 17.80859375 31.3046875 C18.06117227 34.86140544 18 38.43432497 18 42 C9.09 42 0.18 42 -9 42 C-9.99 36.555 -9.99 36.555 -11 31 C-13.2652948 24.95411186 -16.29624623 20.93663944 -22.0625 17.9375 C-30.92824771 14.00183633 -39.60102978 14.03075656 -48.71484375 17.1015625 C-55.72825826 19.85897333 -59.6045472 24.42386701 -63 31 C-65.18954697 37.1031983 -65.32191148 42.78710047 -65.3359375 49.234375 C-65.3425943 50.3081842 -65.3492511 51.38199341 -65.35610962 52.48834229 C-65.36620492 54.75425512 -65.37092761 57.02019751 -65.37060547 59.28613281 C-65.37496843 62.72511688 -65.41129491 66.16280595 -65.44921875 69.6015625 C-65.45508983 71.81249566 -65.45905727 74.02343485 -65.4609375 76.234375 C-65.47530853 77.24933044 -65.48967957 78.26428589 -65.50448608 79.30999756 C-65.44320094 89.04681216 -63.01982073 98.19366484 -56.09375 105.33984375 C-48.24788686 111.5609106 -38.61893848 111.93123135 -29 111 C-21.28238676 109.55641767 -17.37531523 106.32544133 -12.8125 99.9375 C-10.27094552 94.8707878 -10.27094552 94.8707878 -9 84 C-19.89 84 -30.78 84 -42 84 C-42 76.41 -42 68.82 -42 61 C-22.2 61 -2.4 61 18 61 C18 84.76 18 108.52 18 133 C9.75 133 1.5 133 -7 133 C-7 128.71 -7 124.42 -7 120 C-10.93728327 121.96864163 -11.48877724 122.38536962 -13.625 125.8125 C-17.79985725 131.67008033 -24.07627284 134.50513153 -31 136 C-47.80911078 137.42783894 -63.08760448 134.94474648 -76.625 124.3125 C-85.97907826 115.78123418 -92.47536257 102.92764138 -93.14717102 90.21510315 C-93.15701523 89.20253952 -93.16685944 88.18997589 -93.17700195 87.14672852 C-93.18983719 85.99104874 -93.20267242 84.83536896 -93.21589661 83.64466858 C-93.22328354 82.40196701 -93.23067047 81.15926544 -93.23828125 79.87890625 C-93.246353 78.58742172 -93.25442474 77.29593719 -93.26274109 75.96531677 C-93.27773619 73.22923925 -93.28758613 70.49318732 -93.29516602 67.75708008 C-93.30615649 64.29104664 -93.34048145 60.82566834 -93.38033772 57.35986423 C-93.41315895 54.01207486 -93.41731386 50.66434378 -93.42578125 47.31640625 C-93.44328934 46.09192276 -93.46079742 44.86743927 -93.47883606 43.60585022 C-93.44051597 28.0967669 -88.78574184 15.31698553 -78.4375 3.75 C-58.94123768 -14.61495116 -21.09782951 -16.15926701 0 0 Z " fill="#FFFFFF" transform="translate(404,56)"/>
<path d="M0 0 C9.88176087 7.92174219 15.89597519 18.78206914 17.80859375 31.3046875 C18.06117227 34.86140544 18 38.43432497 18 42 C9.09 42 0.18 42 -9 42 C-9.99 36.555 -9.99 36.555 -11 31 C-13.2652948 24.95411186 -16.29624623 20.93663944 -22.0625 17.9375 C-30.92824771 14.00183633 -39.60102978 14.03075656 -48.71484375 17.1015625 C-55.72825826 19.85897333 -59.6045472 24.42386701 -63 31 C-65.18954697 37.1031983 -65.32191148 42.78710047 -65.3359375 49.234375 C-65.3425943 50.3081842 -65.3492511 51.38199341 -65.35610962 52.48834229 C-65.36620492 54.75425512 -65.37092761 57.02019751 -65.37060547 59.28613281 C-65.37496843 62.72511688 -65.41129491 66.16280595 -65.44921875 69.6015625 C-65.45508983 71.81249566 -65.45905727 74.02343485 -65.4609375 76.234375 C-65.47530853 77.24933044 -65.48967957 78.26428589 -65.50448608 79.30999756 C-65.44320094 89.04681216 -63.01982073 98.19366484 -56.09375 105.33984375 C-48.24788686 111.5609106 -38.61893848 111.93123135 -29 111 C-21.28238676 109.55641767 -17.37531523 106.32544133 -12.8125 99.9375 C-10.27094552 94.8707878 -10.27094552 94.8707878 -9 84 C-19.89 84 -30.78 84 -42 84 C-42 76.41 -42 68.82 -42 61 C-22.2 61 -2.4 61 18 61 C18 84.76 18 108.52 18 133 C9.75 133 1.5 133 -7 133 C-7 128.71 -7 124.42 -7 120 C-10.93728327 121.96864163 -11.48877724 122.38536962 -13.625 125.8125 C-17.79985725 131.67008033 -24.07627284 134.50513153 -31 136 C-47.80911078 137.42783894 -63.08760448 134.94474648 -76.625 124.3125 C-85.97907826 115.78123418 -92.47536257 102.92764138 -93.14717102 90.21510315 C-93.15701523 89.20253952 -93.16685944 88.18997589 -93.17700195 87.14672852 C-93.18983719 85.99104874 -93.20267242 84.83536896 -93.21589661 83.64466858 C-93.22328354 82.40196701 -93.23067047 81.15926544 -93.23828125 79.87890625 C-93.246353 78.58742172 -93.25442474 77.29593719 -93.26274109 75.96531677 C-93.27773619 73.22923925 -93.28758613 70.49318732 -93.29516602 67.75708008 C-93.30615649 64.29104664 -93.34048145 60.82566834 -93.38033772 57.35986423 C-93.41315895 54.01207486 -93.41731386 50.66434378 -93.42578125 47.31640625 C-93.44328934 46.09192276 -93.46079742 44.86743927 -93.47883606 43.60585022 C-93.44051597 28.0967669 -88.78574184 15.31698553 -78.4375 3.75 C-58.94123768 -14.61495116 -21.09782951 -16.15926701 0 0 Z " fill="#FFFFFF" transform="translate(158,56)"/>
<path d="M0 0 C10.9640368 8.21003704 16.91353669 19.75330547 19.3125 33.1875 C21.123383 50.59209769 19.29756623 67.68895609 8.87109375 82.21875 C2.18521349 90.32284729 -6.84645161 96.06903891 -17.3125 97.6875 C-29.45519804 98.66637393 -41.35334627 98.56217969 -51.3125 90.6875 C-54.1875 88.0625 -54.1875 88.0625 -56.3125 85.6875 C-56.3125 85.0275 -56.3125 84.3675 -56.3125 83.6875 C-57.6325 83.6875 -58.9525 83.6875 -60.3125 83.6875 C-60.3125 100.5175 -60.3125 117.3475 -60.3125 134.6875 C-68.8925 134.6875 -77.4725 134.6875 -86.3125 134.6875 C-86.33504632 116.58142062 -86.35347876 98.47535316 -86.36431217 80.36926365 C-86.36947531 71.96288616 -86.37651834 63.55651799 -86.38793945 55.15014648 C-86.39788575 47.82582068 -86.4043533 40.50150163 -86.40658849 33.17716926 C-86.40789569 29.29659213 -86.41098212 25.4160343 -86.41823006 21.53546333 C-86.42498942 17.88710443 -86.42711713 14.23877289 -86.42560768 10.59040833 C-86.42601637 8.60461581 -86.431412 6.6188263 -86.43692017 4.63304138 C-86.4355455 3.4620993 -86.43417084 2.29115723 -86.43275452 1.08473206 C-86.43413721 -0.45143595 -86.43413721 -0.45143595 -86.43554783 -2.01863766 C-86.3125 -4.3125 -86.3125 -4.3125 -85.3125 -5.3125 C-83.45880389 -5.39987645 -81.60182459 -5.41948153 -79.74609375 -5.41015625 C-78.62138672 -5.40693359 -77.49667969 -5.40371094 -76.33789062 -5.40039062 C-75.15388672 -5.39201172 -73.96988281 -5.38363281 -72.75 -5.375 C-71.56212891 -5.37048828 -70.37425781 -5.36597656 -69.15039062 -5.36132812 C-66.20440588 -5.34949686 -63.25844684 -5.33156076 -60.3125 -5.3125 C-60.3125 -1.3525 -60.3125 2.6075 -60.3125 6.6875 C-56.67897725 4.50738635 -54.50631869 3.05631691 -51.625 0.25 C-37.30141317 -12.17781798 -15.09307571 -9.88396108 0 0 Z M-53.3125 22.6875 C-60.44478428 31.24277044 -61.06890185 40.91777844 -60.3125 51.6875 C-59.06202553 59.34796963 -55.8500194 66.29909266 -49.5078125 71.03515625 C-41.75845805 75.67479121 -32.39880098 76.02197784 -23.67578125 74.109375 C-16.47775948 71.34573663 -11.06577386 65.49896491 -7.875 58.5625 C-5.84982901 48.21162605 -5.26562161 38.63235257 -9.3125 28.6875 C-14.16838282 21.52483053 -19.10995008 16.88866159 -27.65234375 15.234375 C-37.6196627 13.82144227 -45.69012492 15.98277008 -53.3125 22.6875 Z " fill="#FFFFFF" transform="translate(665.3125,94.3125)"/>
<path d="M0 0 C8.58 0 17.16 0 26 0 C26 3.96 26 7.92 26 12 C26.99 12 27.98 12 29 12 C29.0928125 11.1646875 29.0928125 11.1646875 29.1875 10.3125 C30.75759976 5.84375453 34.01310693 3.52401402 38.08984375 1.359375 C42.51111401 -0.45708438 46.72635906 -0.33438465 51.4375 -0.1875 C54.263125 -0.125625 57.08875 -0.06375 60 0 C60 7.59 60 15.18 60 23 C57.545625 23.103125 55.09125 23.20625 52.5625 23.3125 C44.28762155 23.77388716 35.92079446 24.5567825 30 31 C26.4383016 38.25702159 26.52772062 45.14438567 26.48828125 53.125 C26.47140855 54.48121743 26.45325488 55.83741947 26.43388367 57.19360352 C26.38665791 60.73788644 26.3566724 64.28210693 26.33044434 67.82659912 C26.30049912 71.45353518 26.25401733 75.0802567 26.20898438 78.70703125 C26.12326405 85.80457768 26.05731215 92.90215898 26 100 C17.42 100 8.84 100 0 100 C0 67 0 34 0 0 Z " fill="#FFFFFF" transform="translate(447,89)"/>
<path d="M0 0 C8.58 0 17.16 0 26 0 C26 33 26 66 26 100 C17.42 100 8.84 100 0 100 C0 67 0 34 0 0 Z " fill="#FFFFFF" transform="translate(526,89)"/>
<path d="M0 0 C4.40295722 3.59425079 6.50453062 7.15218371 7.44140625 12.7734375 C7.74313451 18.47707493 6.46161518 21.93802963 3.0625 26.5 C-1.50958851 30.54045031 -5.94801654 31.74364001 -11.9375 31.5 C-18.17092546 30.33821461 -21.35422004 27.60345933 -24.9375 22.5 C-27.03178889 18.31142223 -26.35543012 13.06140874 -25.9375 8.5 C-23.97553408 4.10519635 -21.39244062 1.41349649 -17.05859375 -0.8046875 C-11.53225452 -2.61626832 -5.27686267 -2.54197255 0 0 Z " fill="#FFFFFF" transform="translate(548.9375,47.5)"/>
</svg>
